<?xml version="1.0" standalone="no"?><svg xmlns="http://www.w3.org/2000/svg" viewBox="0 0 1440 320"><path fill="#0099ff" fill-opacity="1" d="M0,32L40,64C80,96,160,160,240,165.3C320,171,400,117,480,117.3C560,117,640,171,720,181.3C800,192,880,160,960,149.3C1040,139,1120,149,1200,154.7C1280,160,1360,160,1400,160L1440,160L1440,320L1400,320C1360,320,1280,320,1200,320C1120,320,1040,320,960,320C880,320,800,320,720,320C640,320,560,320,480,320C400,320,320,320,240,320C160,320,80,320,40,320L0,320Z"></path></svg>